ffmpeg started on 2026-01-20 at 13:25:58
Report written to "D:\Convert\FFMetrics\reports\psnr_report-6.txt"
Log level: 32
Command line:
ffmpeg -hide_banner -nostdin -r 24000/1001 -i "F:\\Convert\\files\\[DC] Make Heroine ga Oosugiru - 07_Telegram_HEVC(193).mkv" -r 24000/1001 -i "F:\\Convert\\files\\[DC] Make Heroine ga Oosugiru - 07_Telegram.mp4" -lavfi "[0:v]settb=AVTB,setpts=PTS-STARTPTS,format=pix_fmts=yuv420p10le,fps=24000/1001,scale=1920:1080:flags=lanczos:param0=3:out_range=limited:out_color_matrix=bt709:out_chroma_loc=left,setsar=1/1,setdar=(1920/1080)*(1/1),colorspace=format=yuv420p10:range=tv:primaries=bt709:trc=bt709:space=bt709:fast=0[main];[1:v]settb=AVTB,setpts=PTS-STARTPTS,format=pix_fmts=yuv420p,fps=24000/1001,scale=1920:1080:flags=lanczos:param0=3:out_range=limited:out_color_matrix=bt709:out_chroma_loc=left,setsar=1.000,setdar=1.778,colorspace=format=yuv420p:range=tv:primaries=bt709:trc=bt709:space=bt709:fast=0[ref];[main][ref]psnr=eof_action=endall:stats_file='D\\:/Convert/FFMetrics/logs/psnr_logfile-6.txt'" -f null -
Input #0, matroska,webm, from 'F:\Convert\files\[DC] Make Heroine ga Oosugiru - 07_Telegram_HEVC(193).mkv':
  Metadata:
    COMPATIBLE_BRANDS: isomiso2avc1mp41
    MAJOR_BRAND     : isom
    MINOR_VERSION   : 512
    ENCODER         : Lavf61.7.100
  Duration: 00:24:06.79, start: -0.021000, bitrate: 972 kb/s
  Stream #0:0: Video: hevc (Main 10), yuv420p10le(tv, bt709, progressive), 1920x1080 [SAR 1:1 DAR 16:9], 23.98 fps, 23.98 tbr, 1k tbn (default)
      Metadata:
        HANDLER_NAME    : VideoHandler
        VENDOR_ID       : [0][0][0][0]
        ENCODER         : Lavc61.19.100 libx265
        BPS             : 775329
        DURATION        : 00:24:06.569708333
        NUMBER_OF_FRAMES: 34683
        NUMBER_OF_BYTES : 140195979
        _STATISTICS_WRITING_APP: mkvpropedit v94.0 ('Initiate') 64-bit
        _STATISTICS_WRITING_DATE_UTC: 2026-01-19 15:32:05
        _STATISTICS_TAGS: BPS DURATION NUMBER_OF_FRAMES NUMBER_OF_BYTES
  Stream #0:1: Audio: aac (LC), 48000 Hz, stereo, fltp (default)
      Metadata:
        HANDLER_NAME    : SoundHandler
        VENDOR_ID       : [0][0][0][0]
        ENCODER         : Lavc61.19.100 aac
        BPS             : 193194
        DURATION        : 00:24:06.784000000
        NUMBER_OF_FRAMES: 67819
        NUMBER_OF_BYTES : 34938755
        _STATISTICS_WRITING_APP: mkvpropedit v94.0 ('Initiate') 64-bit
        _STATISTICS_WRITING_DATE_UTC: 2026-01-19 15:32:05
        _STATISTICS_TAGS: BPS DURATION NUMBER_OF_FRAMES NUMBER_OF_BYTES
Input #1, mov,mp4,m4a,3gp,3g2,mj2, from 'F:\Convert\files\[DC] Make Heroine ga Oosugiru - 07_Telegram.mp4':
  Metadata:
    major_brand     : isom
    minor_version   : 512
    compatible_brands: isomiso2avc1mp41
    encoder         : Lavf60.16.100
  Duration: 00:24:06.74, start: 0.000000, bitrate: 3764 kb/s
  Stream #1:0[0x1](und): Video: h264 (High) (avc1 / 0x31637661), yuv420p(tv, bt709, progressive), 1920x1080 [SAR 1:1 DAR 16:9], 3616 kb/s, 23.98 fps, 23.98 tbr, 24k tbn (default)
      Metadata:
        handler_name    : VideoHandler
        vendor_id       : [0][0][0][0]
        encoder         : Lavc60.31.102 h264_qsv
  Stream #1:1[0x2](und): Audio: aac (HE-AACv2) (mp4a / 0x6134706D), 48000 Hz, stereo, fltp, 144 kb/s (default)
      Metadata:
        handler_name    : SoundHandler
        vendor_id       : [0][0][0][0]
Stream mapping:
  Stream #0:0 (hevc) -> settb:default
  Stream #1:0 (h264) -> settb:default
  psnr:default -> Stream #0:0 (wrapped_avframe)
  Stream #0:1 -> #0:1 (aac (native) -> pcm_s16le (native))
Output #0, null, to 'pipe:':
  Metadata:
    COMPATIBLE_BRANDS: isomiso2avc1mp41
    MAJOR_BRAND     : isom
    MINOR_VERSION   : 512
    encoder         : Lavf61.7.100
  Stream #0:0: Video: wrapped_avframe, yuv420p10le(tv, bt709, progressive), 1920x1080 [SAR 1:1 DAR 16:9], q=2-31, 200 kb/s, 23.98 fps, 23.98 tbn
      Metadata:
        encoder         : Lavc61.19.100 wrapped_avframe
  Stream #0:1: Audio: pcm_s16le, 48000 Hz, stereo, s16, 1536 kb/s (default)
      Metadata:
        HANDLER_NAME    : SoundHandler
        VENDOR_ID       : [0][0][0][0]
        _STATISTICS_TAGS: BPS DURATION NUMBER_OF_FRAMES NUMBER_OF_BYTES
        BPS             : 193194
        DURATION        : 00:24:06.784000000
        NUMBER_OF_FRAMES: 67819
        NUMBER_OF_BYTES : 34938755
        _STATISTICS_WRITING_APP: mkvpropedit v94.0 ('Initiate') 64-bit
        _STATISTICS_WRITING_DATE_UTC: 2026-01-19 15:32:05
        encoder         : Lavc61.19.100 pcm_s16le
frame=  127 fps=0.0 q=-0.0 size=N/A time=00:00:05.29 bitrate=N/A speed=10.3x    frame=  309 fps=301 q=-0.0 size=N/A time=00:00:12.88 bitrate=N/A speed=12.6x    frame=  506 fps=326 q=-0.0 size=N/A time=00:00:21.10 bitrate=N/A speed=13.6x    frame=  698 fps=338 q=-0.0 size=N/A time=00:00:29.11 bitrate=N/A speed=14.1x    frame=  882 fps=342 q=-0.0 size=N/A time=00:00:36.78 bitrate=N/A speed=14.3x    frame= 1018 fps=330 q=-0.0 size=N/A time=00:00:42.45 bitrate=N/A speed=13.7x    frame= 1185 fps=328 q=-0.0 size=N/A time=00:00:49.42 bitrate=N/A speed=13.7x    frame= 1337 fps=324 q=-0.0 size=N/A time=00:00:55.76 bitrate=N/A speed=13.5x    frame= 1493 fps=322 q=-0.0 size=N/A time=00:01:02.27 bitrate=N/A speed=13.4x    frame= 1638 fps=317 q=-0.0 size=N/A time=00:01:08.31 bitrate=N/A speed=13.2x    frame= 1802 fps=317 q=-0.0 size=N/A time=00:01:15.15 bitrate=N/A speed=13.2x    frame= 1965 fps=318 q=-0.0 size=N/A time=00:01:21.95 bitrate=N/A speed=13.2x    frame= 2084 fps=311 q=-0.0 size=N/A time=00:01:26.92 bitrate=N/A speed=  13x    frame= 2234 fps=309 q=-0.0 size=N/A time=00:01:33.17 bitrate=N/A speed=12.9x    frame= 2382 fps=308 q=-0.0 size=N/A time=00:01:39.34 bitrate=N/A speed=12.8x    frame= 2513 fps=305 q=-0.0 size=N/A time=00:01:44.81 bitrate=N/A speed=12.7x    frame= 2674 fps=305 q=-0.0 size=N/A time=00:01:51.52 bitrate=N/A speed=12.7x    frame= 2854 fps=307 q=-0.0 size=N/A time=00:01:59.03 bitrate=N/A speed=12.8x    frame= 3029 fps=309 q=-0.0 size=N/A time=00:02:06.33 bitrate=N/A speed=12.9x    frame= 3222 fps=312 q=-0.0 size=N/A time=00:02:14.38 bitrate=N/A speed=  13x    frame= 3409 fps=315 q=-0.0 size=N/A time=00:02:22.18 bitrate=N/A speed=13.1x    frame= 3605 fps=318 q=-0.0 size=N/A time=00:02:30.35 bitrate=N/A speed=13.2x    frame= 3795 fps=320 q=-0.0 size=N/A time=00:02:38.28 bitrate=N/A speed=13.3x    frame= 3989 fps=322 q=-0.0 size=N/A time=00:02:46.37 bitrate=N/A speed=13.4x    frame= 4191 fps=325 q=-0.0 size=N/A time=00:02:54.79 bitrate=N/A speed=13.6x    frame= 4391 fps=327 q=-0.0 size=N/A time=00:03:03.14 bitrate=N/A speed=13.7x    frame= 4586 fps=329 q=-0.0 size=N/A time=00:03:11.27 bitrate=N/A speed=13.7x    frame= 4776 fps=330 q=-0.0 size=N/A time=00:03:19.19 bitrate=N/A speed=13.8x    frame= 4972 fps=332 q=-0.0 size=N/A time=00:03:27.37 bitrate=N/A speed=13.9x    frame= 5167 fps=334 q=-0.0 size=N/A time=00:03:35.50 bitrate=N/A speed=13.9x    frame= 5363 fps=335 q=-0.0 size=N/A time=00:03:43.68 bitrate=N/A speed=  14x    frame= 5554 fps=336 q=-0.0 size=N/A time=00:03:51.64 bitrate=N/A speed=  14x    frame= 5747 fps=338 q=-0.0 size=N/A time=00:03:59.69 bitrate=N/A speed=14.1x    frame= 5942 fps=338 q=-0.0 size=N/A time=00:04:07.83 bitrate=N/A speed=14.1x    frame= 6139 fps=340 q=-0.0 size=N/A time=00:04:16.04 bitrate=N/A speed=14.2x    frame= 6327 fps=341 q=-0.0 size=N/A time=00:04:23.88 bitrate=N/A speed=14.2x    frame= 6521 fps=341 q=-0.0 size=N/A time=00:04:31.98 bitrate=N/A speed=14.2x    frame= 6709 fps=342 q=-0.0 size=N/A time=00:04:39.82 bitrate=N/A speed=14.3x    frame= 6907 fps=343 q=-0.0 size=N/A time=00:04:48.07 bitrate=N/A speed=14.3x    frame= 7100 fps=344 q=-0.0 size=N/A time=00:04:56.12 bitrate=N/A speed=14.3x    frame= 7290 fps=345 q=-0.0 size=N/A time=00:05:04.05 bitrate=N/A speed=14.4x    frame= 7470 fps=345 q=-0.0 size=N/A time=00:05:11.56 bitrate=N/A speed=14.4x    frame= 7653 fps=345 q=-0.0 size=N/A time=00:05:19.19 bitrate=N/A speed=14.4x    frame= 7842 fps=345 q=-0.0 size=N/A time=00:05:27.07 bitrate=N/A speed=14.4x    frame= 8029 fps=346 q=-0.0 size=N/A time=00:05:34.87 bitrate=N/A speed=14.4x    frame= 8213 fps=346 q=-0.0 size=N/A time=00:05:42.55 bitrate=N/A speed=14.4x    frame= 8401 fps=346 q=-0.0 size=N/A time=00:05:50.39 bitrate=N/A speed=14.4x    frame= 8584 fps=347 q=-0.0 size=N/A time=00:05:58.02 bitrate=N/A speed=14.5x    frame= 8775 fps=347 q=-0.0 size=N/A time=00:06:05.99 bitrate=N/A speed=14.5x    frame= 8959 fps=347 q=-0.0 size=N/A time=00:06:13.66 bitrate=N/A speed=14.5x    frame= 9153 fps=348 q=-0.0 size=N/A time=00:06:21.75 bitrate=N/A speed=14.5x    frame= 9343 fps=348 q=-0.0 size=N/A time=00:06:29.68 bitrate=N/A speed=14.5x    frame= 9529 fps=349 q=-0.0 size=N/A time=00:06:37.43 bitrate=N/A speed=14.5x    frame= 9728 fps=349 q=-0.0 size=N/A time=00:06:45.73 bitrate=N/A speed=14.6x    frame= 9917 fps=349 q=-0.0 size=N/A time=00:06:53.62 bitrate=N/A speed=14.6x    frame=10099 fps=350 q=-0.0 size=N/A time=00:07:01.21 bitrate=N/A speed=14.6x    frame=10289 fps=350 q=-0.0 size=N/A time=00:07:09.13 bitrate=N/A speed=14.6x    frame=10475 fps=350 q=-0.0 size=N/A time=00:07:16.89 bitrate=N/A speed=14.6x    frame=10660 fps=350 q=-0.0 size=N/A time=00:07:24.61 bitrate=N/A speed=14.6x    frame=10854 fps=351 q=-0.0 size=N/A time=00:07:32.70 bitrate=N/A speed=14.6x    frame=11037 fps=351 q=-0.0 size=N/A time=00:07:40.33 bitrate=N/A speed=14.6x    frame=11217 fps=351 q=-0.0 size=N/A time=00:07:47.84 bitrate=N/A speed=14.6x    frame=11406 fps=351 q=-0.0 size=N/A time=00:07:55.72 bitrate=N/A speed=14.6x    frame=11601 fps=351 q=-0.0 size=N/A time=00:08:03.85 bitrate=N/A speed=14.7x    frame=11782 fps=351 q=-0.0 size=N/A time=00:08:11.40 bitrate=N/A speed=14.7x    frame=11968 fps=352 q=-0.0 size=N/A time=00:08:19.16 bitrate=N/A speed=14.7x    frame=12149 fps=352 q=-0.0 size=N/A time=00:08:26.71 bitrate=N/A speed=14.7x    frame=12349 fps=352 q=-0.0 size=N/A time=00:08:35.05 bitrate=N/A speed=14.7x    frame=12524 fps=352 q=-0.0 size=N/A time=00:08:42.35 bitrate=N/A speed=14.7x    frame=12708 fps=352 q=-0.0 size=N/A time=00:08:50.02 bitrate=N/A speed=14.7x    frame=12899 fps=352 q=-0.0 size=N/A time=00:08:57.99 bitrate=N/A speed=14.7x    frame=13091 fps=352 q=-0.0 size=N/A time=00:09:06.00 bitrate=N/A speed=14.7x    frame=13278 fps=353 q=-0.0 size=N/A time=00:09:13.80 bitrate=N/A speed=14.7x    frame=13462 fps=353 q=-0.0 size=N/A time=00:09:21.47 bitrate=N/A speed=14.7x    frame=13658 fps=353 q=-0.0 size=N/A time=00:09:29.65 bitrate=N/A speed=14.7x    frame=13842 fps=353 q=-0.0 size=N/A time=00:09:37.32 bitrate=N/A speed=14.7x    frame=14021 fps=353 q=-0.0 size=N/A time=00:09:44.79 bitrate=N/A speed=14.7x    frame=14194 fps=353 q=-0.0 size=N/A time=00:09:52.00 bitrate=N/A speed=14.7x    frame=14386 fps=353 q=-0.0 size=N/A time=00:10:00.01 bitrate=N/A speed=14.7x    frame=14575 fps=353 q=-0.0 size=N/A time=00:10:07.89 bitrate=N/A speed=14.7x    frame=14751 fps=353 q=-0.0 size=N/A time=00:10:15.23 bitrate=N/A speed=14.7x    frame=14935 fps=353 q=-0.0 size=N/A time=00:10:22.91 bitrate=N/A speed=14.7x    frame=15110 fps=353 q=-0.0 size=N/A time=00:10:30.21 bitrate=N/A speed=14.7x    frame=15260 fps=352 q=-0.0 size=N/A time=00:10:36.46 bitrate=N/A speed=14.7x    frame=15426 fps=352 q=-0.0 size=N/A time=00:10:43.39 bitrate=N/A speed=14.7x    frame=15597 fps=351 q=-0.0 size=N/A time=00:10:50.52 bitrate=N/A speed=14.7x    frame=15776 fps=351 q=-0.0 size=N/A time=00:10:57.99 bitrate=N/A speed=14.7x    frame=15975 fps=352 q=-0.0 size=N/A time=00:11:06.29 bitrate=N/A speed=14.7x    frame=16156 fps=352 q=-0.0 size=N/A time=00:11:13.83 bitrate=N/A speed=14.7x    frame=16342 fps=352 q=-0.0 size=N/A time=00:11:21.59 bitrate=N/A speed=14.7x    frame=16522 fps=352 q=-0.0 size=N/A time=00:11:29.10 bitrate=N/A speed=14.7x    frame=16722 fps=352 q=-0.0 size=N/A time=00:11:37.44 bitrate=N/A speed=14.7x    frame=16907 fps=352 q=-0.0 size=N/A time=00:11:45.16 bitrate=N/A speed=14.7x    frame=17100 fps=353 q=-0.0 size=N/A time=00:11:53.21 bitrate=N/A speed=14.7x    frame=17290 fps=353 q=-0.0 size=N/A time=00:12:01.13 bitrate=N/A speed=14.7x    frame=17485 fps=353 q=-0.0 size=N/A time=00:12:09.27 bitrate=N/A speed=14.7x    frame=17674 fps=353 q=-0.0 size=N/A time=00:12:17.15 bitrate=N/A speed=14.7x    frame=17854 fps=353 q=-0.0 size=N/A time=00:12:24.66 bitrate=N/A speed=14.7x    frame=18046 fps=353 q=-0.0 size=N/A time=00:12:32.66 bitrate=N/A speed=14.7x    frame=18232 fps=353 q=-0.0 size=N/A time=00:12:40.42 bitrate=N/A speed=14.7x    frame=18414 fps=353 q=-0.0 size=N/A time=00:12:48.01 bitrate=N/A speed=14.7x    frame=18608 fps=354 q=-0.0 size=N/A time=00:12:56.10 bitrate=N/A speed=14.7x    frame=18802 fps=354 q=-0.0 size=N/A time=00:13:04.20 bitrate=N/A speed=14.8x    frame=18993 fps=354 q=-0.0 size=N/A time=00:13:12.16 bitrate=N/A speed=14.8x    frame=19184 fps=354 q=-0.0 size=N/A time=00:13:20.13 bitrate=N/A speed=14.8x    frame=19377 fps=354 q=-0.0 size=N/A time=00:13:28.18 bitrate=N/A speed=14.8x    frame=19566 fps=354 q=-0.0 size=N/A time=00:13:36.06 bitrate=N/A speed=14.8x    frame=19761 fps=355 q=-0.0 size=N/A time=00:13:44.19 bitrate=N/A speed=14.8x    frame=19954 fps=355 q=-0.0 size=N/A time=00:13:52.24 bitrate=N/A speed=14.8x    frame=20157 fps=355 q=-0.0 size=N/A time=00:14:00.71 bitrate=N/A speed=14.8x    frame=20345 fps=355 q=-0.0 size=N/A time=00:14:08.55 bitrate=N/A speed=14.8x    frame=20523 fps=355 q=-0.0 size=N/A time=00:14:15.98 bitrate=N/A speed=14.8x    frame=20710 fps=355 q=-0.0 size=N/A time=00:14:23.77 bitrate=N/A speed=14.8x    frame=20906 fps=355 q=-0.0 size=N/A time=00:14:31.95 bitrate=N/A speed=14.8x    frame=21100 fps=356 q=-0.0 size=N/A time=00:14:40.04 bitrate=N/A speed=14.8x    frame=21297 fps=356 q=-0.0 size=N/A time=00:14:48.26 bitrate=N/A speed=14.8x    frame=21489 fps=356 q=-0.0 size=N/A time=00:14:56.27 bitrate=N/A speed=14.8x    frame=21675 fps=356 q=-0.0 size=N/A time=00:15:04.02 bitrate=N/A speed=14.9x    frame=21868 fps=356 q=-0.0 size=N/A time=00:15:12.07 bitrate=N/A speed=14.9x    frame=22063 fps=356 q=-0.0 size=N/A time=00:15:20.25 bitrate=N/A speed=14.9x    frame=22248 fps=356 q=-0.0 size=N/A time=00:15:27.92 bitrate=N/A speed=14.9x    frame=22431 fps=356 q=-0.0 size=N/A time=00:15:35.55 bitrate=N/A speed=14.9x    frame=22624 fps=357 q=-0.0 size=N/A time=00:15:43.60 bitrate=N/A speed=14.9x    frame=22806 fps=357 q=-0.0 size=N/A time=00:15:51.20 bitrate=N/A speed=14.9x    frame=22984 fps=356 q=-0.0 size=N/A time=00:15:58.62 bitrate=N/A speed=14.9x    frame=23178 fps=357 q=-0.0 size=N/A time=00:16:06.71 bitrate=N/A speed=14.9x    frame=23364 fps=357 q=-0.0 size=N/A time=00:16:14.47 bitrate=N/A speed=14.9x    frame=23557 fps=357 q=-0.0 size=N/A time=00:16:22.52 bitrate=N/A speed=14.9x    frame=23741 fps=357 q=-0.0 size=N/A time=00:16:30.19 bitrate=N/A speed=14.9x    frame=23936 fps=357 q=-0.0 size=N/A time=00:16:38.33 bitrate=N/A speed=14.9x    frame=24126 fps=357 q=-0.0 size=N/A time=00:16:46.25 bitrate=N/A speed=14.9x    frame=24318 fps=357 q=-0.0 size=N/A time=00:16:54.26 bitrate=N/A speed=14.9x    frame=24503 fps=357 q=-0.0 size=N/A time=00:17:01.97 bitrate=N/A speed=14.9x    frame=24698 fps=357 q=-0.0 size=N/A time=00:17:10.11 bitrate=N/A speed=14.9x    frame=24881 fps=357 q=-0.0 size=N/A time=00:17:17.74 bitrate=N/A speed=14.9x    frame=25074 fps=357 q=-0.0 size=N/A time=00:17:25.79 bitrate=N/A speed=14.9x    frame=25262 fps=357 q=-0.0 size=N/A time=00:17:33.63 bitrate=N/A speed=14.9x    frame=25446 fps=357 q=-0.0 size=N/A time=00:17:41.31 bitrate=N/A speed=14.9x    frame=25635 fps=357 q=-0.0 size=N/A time=00:17:49.19 bitrate=N/A speed=14.9x    frame=25819 fps=357 q=-0.0 size=N/A time=00:17:56.86 bitrate=N/A speed=14.9x    frame=26004 fps=358 q=-0.0 size=N/A time=00:18:04.58 bitrate=N/A speed=14.9x    frame=26187 fps=358 q=-0.0 size=N/A time=00:18:12.21 bitrate=N/A speed=14.9x    frame=26388 fps=358 q=-0.0 size=N/A time=00:18:20.59 bitrate=N/A speed=14.9x    frame=26572 fps=358 q=-0.0 size=N/A time=00:18:28.27 bitrate=N/A speed=14.9x    frame=26756 fps=358 q=-0.0 size=N/A time=00:18:35.94 bitrate=N/A speed=14.9x    frame=26925 fps=357 q=-0.0 size=N/A time=00:18:42.99 bitrate=N/A speed=14.9x    frame=27090 fps=357 q=-0.0 size=N/A time=00:18:49.87 bitrate=N/A speed=14.9x    frame=27267 fps=357 q=-0.0 size=N/A time=00:18:57.26 bitrate=N/A speed=14.9x    frame=27458 fps=357 q=-0.0 size=N/A time=00:19:05.22 bitrate=N/A speed=14.9x    frame=27647 fps=357 q=-0.0 size=N/A time=00:19:13.11 bitrate=N/A speed=14.9x    frame=27831 fps=357 q=-0.0 size=N/A time=00:19:20.78 bitrate=N/A speed=14.9x    frame=28033 fps=357 q=-0.0 size=N/A time=00:19:29.20 bitrate=N/A speed=14.9x    frame=28220 fps=358 q=-0.0 size=N/A time=00:19:37.00 bitrate=N/A speed=14.9x    frame=28400 fps=358 q=-0.0 size=N/A time=00:19:44.51 bitrate=N/A speed=14.9x    frame=28596 fps=358 q=-0.0 size=N/A time=00:19:52.69 bitrate=N/A speed=14.9x    frame=28789 fps=358 q=-0.0 size=N/A time=00:20:00.74 bitrate=N/A speed=14.9x    frame=28959 fps=358 q=-0.0 size=N/A time=00:20:07.83 bitrate=N/A speed=14.9x    frame=29132 fps=357 q=-0.0 size=N/A time=00:20:15.04 bitrate=N/A speed=14.9x    frame=29317 fps=357 q=-0.0 size=N/A time=00:20:22.76 bitrate=N/A speed=14.9x    frame=29492 fps=357 q=-0.0 size=N/A time=00:20:30.06 bitrate=N/A speed=14.9x    frame=29668 fps=357 q=-0.0 size=N/A time=00:20:37.40 bitrate=N/A speed=14.9x    frame=29840 fps=357 q=-0.0 size=N/A time=00:20:44.57 bitrate=N/A speed=14.9x    frame=30013 fps=357 q=-0.0 size=N/A time=00:20:51.79 bitrate=N/A speed=14.9x    frame=30188 fps=357 q=-0.0 size=N/A time=00:20:59.09 bitrate=N/A speed=14.9x    frame=30381 fps=357 q=-0.0 size=N/A time=00:21:07.14 bitrate=N/A speed=14.9x    frame=30574 fps=357 q=-0.0 size=N/A time=00:21:15.19 bitrate=N/A speed=14.9x    frame=30769 fps=357 q=-0.0 size=N/A time=00:21:23.32 bitrate=N/A speed=14.9x    frame=30951 fps=357 q=-0.0 size=N/A time=00:21:30.91 bitrate=N/A speed=14.9x    frame=31135 fps=357 q=-0.0 size=N/A time=00:21:38.58 bitrate=N/A speed=14.9x    frame=31333 fps=357 q=-0.0 size=N/A time=00:21:46.84 bitrate=N/A speed=14.9x    frame=31517 fps=357 q=-0.0 size=N/A time=00:21:54.52 bitrate=N/A speed=14.9x    frame=31706 fps=357 q=-0.0 size=N/A time=00:22:02.40 bitrate=N/A speed=14.9x    frame=31886 fps=357 q=-0.0 size=N/A time=00:22:09.91 bitrate=N/A speed=14.9x    frame=32056 fps=357 q=-0.0 size=N/A time=00:22:17.00 bitrate=N/A speed=14.9x    frame=32247 fps=357 q=-0.0 size=N/A time=00:22:24.96 bitrate=N/A speed=14.9x    frame=32426 fps=357 q=-0.0 size=N/A time=00:22:32.43 bitrate=N/A speed=14.9x    frame=32614 fps=357 q=-0.0 size=N/A time=00:22:40.27 bitrate=N/A speed=14.9x    frame=32766 fps=357 q=-0.0 size=N/A time=00:22:46.61 bitrate=N/A speed=14.9x    frame=32932 fps=357 q=-0.0 size=N/A time=00:22:53.53 bitrate=N/A speed=14.9x    frame=33114 fps=357 q=-0.0 size=N/A time=00:23:01.12 bitrate=N/A speed=14.9x    frame=33291 fps=357 q=-0.0 size=N/A time=00:23:08.51 bitrate=N/A speed=14.9x    frame=33470 fps=357 q=-0.0 size=N/A time=00:23:15.97 bitrate=N/A speed=14.9x    frame=33612 fps=356 q=-0.0 size=N/A time=00:23:21.90 bitrate=N/A speed=14.9x    frame=33752 fps=356 q=-0.0 size=N/A time=00:23:27.73 bitrate=N/A speed=14.8x    frame=33879 fps=355 q=-0.0 size=N/A time=00:23:33.03 bitrate=N/A speed=14.8x    frame=34031 fps=355 q=-0.0 size=N/A time=00:23:39.37 bitrate=N/A speed=14.8x    frame=34192 fps=354 q=-0.0 size=N/A time=00:23:46.09 bitrate=N/A speed=14.8x    frame=34335 fps=354 q=-0.0 size=N/A time=00:23:52.05 bitrate=N/A speed=14.8x    frame=34467 fps=354 q=-0.0 size=N/A time=00:23:57.56 bitrate=N/A speed=14.7x    frame=34656 fps=354 q=-0.0 size=N/A time=00:24:05.44 bitrate=N/A speed=14.7x    [Parsed_psnr_16 @ 000001e4b47eba40] PSNR y:48.982875 u:50.355025 v:50.399392 average:49.399799 min:37.989017 max:inf
[out#0/null @ 000001e4a727fe80] video:14903KiB audio:271276KiB subtitle:0KiB other streams:0KiB global headers:0KiB muxing overhead: unknown
frame=34683 fps=354 q=-0.0 Lsize=N/A time=00:24:06.57 bitrate=N/A speed=14.7x    
